<?xml version="1.0" encoding="utf-8"?>
<!-- Generator: Adobe Illustrator 28.1.0, SVG Export Plug-In . SVG Version: 6.00 Build 0)  -->
<svg version="1.1" id="图层_1" xmlns="http://www.w3.org/2000/svg" xmlns:xlink="http://www.w3.org/1999/xlink" x="0px" y="0px"
	 viewBox="0 0 200 200" style="enable-background:new 0 0 200 200;" xml:space="preserve">
<style type="text/css">
	.st0{fill:#25467A;}
	.st1{fill:#F2AC61;}
	.st2{fill:#F3F3F3;}
	.st3{fill:#FCCEC7;}
</style>
<path class="st0" d="M182.1,72c-12.2-19.6-27.9-30.8-44.3-31.9c-0.1-0.1-0.1-0.2-0.2-0.3C121.6,14.1,101.2,0,80,0
	S38.4,14.1,22.4,39.8C8.4,62.5,0,91.5,0,117.5C0,174.4,46.8,200,80,200c9.6,0,19.6-2,29-5.7c8.8,3.9,17.9,5.7,26,5.7
	c15.3,0,30.9-5.9,42.9-16.1c10.1-8.7,22.1-24.4,22.1-50.2C200,113,193.3,90,182.1,72z"/>
<path class="st1" d="M189.9,133.6c0,38.7-31.4,56.4-54.9,56.4c-6.4,0-13.3-1.3-20-4c5.2-2.7,10.1-6,14.5-9.9
	c11.6-10.1,25.5-28.4,25.5-58.7c0-22.5-6.5-47-17.3-67.4C166,52.7,189.9,96.1,189.9,133.6z"/>
<path class="st2" d="M10,117.5C10,67.8,42.5,10,80,10s70,57.8,70,107.5S110,190,80,190S10,167.2,10,117.5z"/>
<path class="st1" d="M150,117.5c0,49.7-40,72.5-70,72.5c-22,0-49.2-12.2-62.3-38.2c10.8,3.8,22.1,5.7,33.6,5.7
	c44.2,0,81.8-28.3,95.6-67.9C148.9,98.9,150,108.4,150,117.5z"/>
<path class="st0" d="M80,107.5c-6.9,0-12.5-5.6-12.5-12.5c0-1.4,1.1-2.5,2.5-2.5c1.4,0,2.5,1.1,2.5,2.5l0,0c0,4.1,3.4,7.5,7.5,7.5
	c4.1,0,7.5-3.4,7.5-7.5c0-1.4,1.1-2.5,2.5-2.5s2.5,1.1,2.5,2.5l0,0C92.5,101.9,86.9,107.5,80,107.5z M47.5,75c0,4.1,3.4,7.5,7.5,7.5
	s7.5-3.4,7.5-7.5l0,0c0-4.1-3.4-7.5-7.5-7.5S47.5,70.9,47.5,75z M97.5,75c0,4.1,3.4,7.5,7.5,7.5c4.1,0,7.5-3.4,7.5-7.5c0,0,0,0,0,0
	c0-4.1-3.4-7.5-7.5-7.5C100.9,67.5,97.5,70.8,97.5,75C97.5,75,97.5,75,97.5,75z"/>
<path class="st3" d="M45,87.5H35c-2.8,0-5,2.2-5,5s2.2,5,5,5h10c2.8,0,5-2.2,5-5S47.8,87.5,45,87.5z M125,87.5h-10c-2.8,0-5,2.2-5,5
	s2.2,5,5,5l0,0h10c2.8,0,5-2.2,5-5S127.8,87.5,125,87.5z"/>
</svg>
